<?xml version="1.0" encoding="UTF-8" standalone="no"?>
<!DOCTYPE svg PUBLIC "-//W3C//DTD SVG 1.1//EN"
 "http://www.w3.org/Graphics/SVG/1.1/DTD/svg11.dtd">
<!-- Generated by graphviz version 2.40.1 (20161225.0304)
 -->
<!-- Title: controllers_diagram Pages: 1 -->
<svg width="350pt" height="456pt"
 viewBox="0.00 0.00 350.00 456.00" xmlns="http://www.w3.org/2000/svg" xmlns:xlink="http://www.w3.org/1999/xlink">
<g id="graph0" class="graph" transform="scale(1 1) rotate(0) translate(4 452)">
<title>controllers_diagram</title>
<polygon fill="transparent" stroke="transparent" points="-4,4 -4,-452 346,-452 346,4 -4,4"/>
<!-- _diagram_info -->
<g id="node1" class="node">
<title>_diagram_info</title>
<text text-anchor="start" x="134" y="-63.6" font-family="Times,serif" font-size="13.00" fill="#000000">Controllers diagram</text>
<text text-anchor="start" x="134" y="-49.6" font-family="Times,serif" font-size="13.00" fill="#000000">Date: Jun 19 2019 &#45; 21:15</text>
<text text-anchor="start" x="134" y="-35.6" font-family="Times,serif" font-size="13.00" fill="#000000">Migration version: 0</text>
<text text-anchor="start" x="134" y="-21.6" font-family="Times,serif" font-size="13.00" fill="#000000">Generated by RailRoady 1.5.3</text>
<text text-anchor="start" x="134" y="-7.6" font-family="Times,serif" font-size="13.00" fill="#000000">http://railroady.prestonlee.com</text>
</g>
<!-- ApplicationController -->
<g id="node2" class="node">
<title>ApplicationController</title>
<path fill="none" stroke="#000000" d="M12,-108.5C12,-108.5 242,-108.5 242,-108.5 248,-108.5 254,-114.5 254,-120.5 254,-120.5 254,-189.5 254,-189.5 254,-195.5 248,-201.5 242,-201.5 242,-201.5 12,-201.5 12,-201.5 6,-201.5 0,-195.5 0,-189.5 0,-189.5 0,-120.5 0,-120.5 0,-114.5 6,-108.5 12,-108.5"/>
<text text-anchor="middle" x="127" y="-186.3" font-family="Times,serif" font-size="14.00" fill="#000000">ApplicationController</text>
<polyline fill="none" stroke="#000000" points="0,-178.5 254,-178.5 "/>
<polyline fill="none" stroke="#000000" points="0,-154.5 254,-154.5 "/>
<text text-anchor="start" x="8" y="-139.3" font-family="Times,serif" font-size="14.00" fill="#000000">configure_permitted_parameters</text>
<polyline fill="none" stroke="#000000" points="0,-131.5 254,-131.5 "/>
<text text-anchor="start" x="8" y="-116.3" font-family="Times,serif" font-size="14.00" fill="#000000">_layout</text>
</g>
<!-- PostsController -->
<g id="node3" class="node">
<title>PostsController</title>
<path fill="none" stroke="#000000" d="M210,-234.5C210,-234.5 314,-234.5 314,-234.5 320,-234.5 326,-240.5 326,-246.5 326,-246.5 326,-435.5 326,-435.5 326,-441.5 320,-447.5 314,-447.5 314,-447.5 210,-447.5 210,-447.5 204,-447.5 198,-441.5 198,-435.5 198,-435.5 198,-246.5 198,-246.5 198,-240.5 204,-234.5 210,-234.5"/>
<text text-anchor="middle" x="262" y="-432.3" font-family="Times,serif" font-size="14.00" fill="#000000">PostsController</text>
<polyline fill="none" stroke="#000000" points="198,-424.5 326,-424.5 "/>
<text text-anchor="start" x="206" y="-409.3" font-family="Times,serif" font-size="14.00" fill="#000000">create</text>
<text text-anchor="start" x="206" y="-394.3" font-family="Times,serif" font-size="14.00" fill="#000000">destroy</text>
<text text-anchor="start" x="206" y="-379.3" font-family="Times,serif" font-size="14.00" fill="#000000">edit</text>
<text text-anchor="start" x="206" y="-364.3" font-family="Times,serif" font-size="14.00" fill="#000000">index</text>
<text text-anchor="start" x="206" y="-349.3" font-family="Times,serif" font-size="14.00" fill="#000000">new</text>
<text text-anchor="start" x="206" y="-334.3" font-family="Times,serif" font-size="14.00" fill="#000000">published</text>
<text text-anchor="start" x="206" y="-319.3" font-family="Times,serif" font-size="14.00" fill="#000000">show</text>
<text text-anchor="start" x="206" y="-304.3" font-family="Times,serif" font-size="14.00" fill="#000000">update</text>
<polyline fill="none" stroke="#000000" points="198,-296.5 326,-296.5 "/>
<polyline fill="none" stroke="#000000" points="198,-272.5 326,-272.5 "/>
<text text-anchor="start" x="206" y="-257.3" font-family="Times,serif" font-size="14.00" fill="#000000">_layout</text>
<text text-anchor="start" x="206" y="-242.3" font-family="Times,serif" font-size="14.00" fill="#000000">post_params</text>
</g>
</g>
</svg>
