<?xml version="1.0" encoding="UTF-8" standalone="no"?>
<!DOCTYPE svg PUBLIC "-//W3C//DTD SVG 1.1//EN"
 "http://www.w3.org/Graphics/SVG/1.1/DTD/svg11.dtd">
<!-- Generated by graphviz version 2.40.1 (20161225.0304)
 -->
<!-- Title: models_diagram Pages: 1 -->
<svg width="646pt" height="302pt"
 viewBox="0.00 0.00 645.84 302.00" xmlns="http://www.w3.org/2000/svg" xmlns:xlink="http://www.w3.org/1999/xlink">
<g id="graph0" class="graph" transform="scale(1 1) rotate(0) translate(4 298)">
<title>models_diagram</title>
<polygon fill="transparent" stroke="transparent" points="-4,4 -4,-298 641.8414,-298 641.8414,4 -4,4"/>
<!-- _diagram_info -->
<g id="node1" class="node">
<title>_diagram_info</title>
<text text-anchor="start" x="8" y="-279.6" font-family="Times,serif" font-size="13.00" fill="#000000">Models diagram</text>
<text text-anchor="start" x="8" y="-265.6" font-family="Times,serif" font-size="13.00" fill="#000000">Date: Jun 19 2019 &#45; 21:15</text>
<text text-anchor="start" x="8" y="-251.6" font-family="Times,serif" font-size="13.00" fill="#000000">Migration version: 0</text>
<text text-anchor="start" x="8" y="-237.6" font-family="Times,serif" font-size="13.00" fill="#000000">Generated by RailRoady 1.5.3</text>
<text text-anchor="start" x="8" y="-223.6" font-family="Times,serif" font-size="13.00" fill="#000000">http://railroady.prestonlee.com</text>
</g>
<!-- Post -->
<g id="node2" class="node">
<title>Post</title>
<ellipse fill="none" stroke="#000000" cx="227" cy="-162" rx="30.5947" ry="18"/>
<text text-anchor="middle" x="227" y="-158.3" font-family="Times,serif" font-size="14.00" fill="#000000">Post</text>
</g>
<!-- Tagging -->
<g id="node4" class="node">
<title>Tagging</title>
<ellipse fill="none" stroke="#000000" cx="227" cy="-18" rx="48.1917" ry="18"/>
<text text-anchor="middle" x="227" y="-14.3" font-family="Times,serif" font-size="14.00" fill="#000000">Tagging</text>
</g>
<!-- Post&#45;&gt;Tagging -->
<g id="edge1" class="edge">
<title>Post&#45;&gt;Tagging</title>
<path fill="none" stroke="#114ff4" d="M221.7772,-136.0159C220.2367,-127.1657 218.7604,-117.1878 218,-108 216.6803,-92.0545 216.6803,-87.9455 218,-72 218.6945,-63.6085 219.9862,-54.5578 221.3786,-46.3092"/>
<ellipse fill="none" stroke="#114ff4" cx="222.5338" cy="-140.1582" rx="4" ry="4"/>
<polygon fill="#114ff4" stroke="#114ff4" points="221.3905,-46.2423 227.5878,-37.1956 222.2746,-41.3211 223.1587,-36.3999 223.1587,-36.3999 223.1587,-36.3999 222.2746,-41.3211 218.7296,-35.6042 221.3905,-46.2423 221.3905,-46.2423"/>
</g>
<!-- Tag -->
<g id="node6" class="node">
<title>Tag</title>
<ellipse fill="none" stroke="#000000" cx="255" cy="-90" rx="27.8951" ry="18"/>
<text text-anchor="middle" x="255" y="-86.3" font-family="Times,serif" font-size="14.00" fill="#000000">Tag</text>
</g>
<!-- Post&#45;&gt;Tag -->
<g id="edge2" class="edge">
<title>Post&#45;&gt;Tag</title>
<path fill="none" stroke="#442339" d="M237.5942,-134.7579C239.8616,-128.9274 242.2559,-122.7706 244.519,-116.9511"/>
<polygon fill="#442339" stroke="#442339" points="237.5459,-134.8822 229.7273,-142.5712 235.7336,-139.5422 233.9214,-144.2022 233.9214,-144.2022 233.9214,-144.2022 235.7336,-139.5422 238.1154,-145.8333 237.5459,-134.8822 237.5459,-134.8822"/>
<polygon fill="#442339" stroke="#442339" points="244.5337,-116.9131 252.3523,-109.2241 246.346,-112.2531 248.1583,-107.593 248.1583,-107.593 248.1583,-107.593 246.346,-112.2531 243.9642,-105.962 244.5337,-116.9131 244.5337,-116.9131"/>
</g>
<!-- Category -->
<g id="node3" class="node">
<title>Category</title>
<ellipse fill="none" stroke="#000000" cx="372" cy="-255" rx="53.8905" ry="18"/>
<text text-anchor="middle" x="372" y="-251.3" font-family="Times,serif" font-size="14.00" fill="#000000">Category</text>
</g>
<!-- User -->
<g id="node5" class="node">
<title>User</title>
<ellipse fill="none" stroke="#000000" cx="267" cy="-255" rx="33.2948" ry="18"/>
<text text-anchor="middle" x="267" y="-251.3" font-family="Times,serif" font-size="14.00" fill="#000000">User</text>
</g>
<!-- User&#45;&gt;Post -->
<g id="edge4" class="edge">
<title>User&#45;&gt;Post</title>
<path fill="none" stroke="#143072" d="M256.0976,-229.6519C250.6538,-216.995 244.0672,-201.6813 238.5384,-188.8267"/>
<ellipse fill="none" stroke="#143072" cx="257.7071" cy="-233.3941" rx="4" ry="4"/>
<polygon fill="#143072" stroke="#143072" points="238.5042,-188.7472 238.6869,-177.7829 236.5287,-184.1541 234.5531,-179.5609 234.5531,-179.5609 234.5531,-179.5609 236.5287,-184.1541 230.4192,-181.3389 238.5042,-188.7472 238.5042,-188.7472"/>
</g>
<!-- Role -->
<g id="node8" class="node">
<title>Role</title>
<ellipse fill="none" stroke="#000000" cx="307" cy="-162" rx="31.3957" ry="18"/>
<text text-anchor="middle" x="307" y="-158.3" font-family="Times,serif" font-size="14.00" fill="#000000">Role</text>
</g>
<!-- User&#45;&gt;Role -->
<g id="edge3" class="edge">
<title>User&#45;&gt;Role</title>
<path fill="none" stroke="#9ae73f" d="M278.8447,-227.461C284.0545,-215.3483 290.1551,-201.1643 295.3432,-189.1021"/>
<polygon fill="#9ae73f" stroke="#9ae73f" points="278.6636,-227.8823 270.5785,-235.2906 276.688,-232.4755 274.7124,-237.0687 274.7124,-237.0687 274.7124,-237.0687 276.688,-232.4755 278.8463,-238.8467 278.6636,-227.8823 278.6636,-227.8823"/>
<polygon fill="#9ae73f" stroke="#9ae73f" points="295.4958,-188.7472 303.5808,-181.3389 297.4713,-184.1541 299.4469,-179.5609 299.4469,-179.5609 299.4469,-179.5609 297.4713,-184.1541 295.3131,-177.7829 295.4958,-188.7472 295.4958,-188.7472"/>
</g>
<!-- Tag&#45;&gt;Tagging -->
<g id="edge5" class="edge">
<title>Tag&#45;&gt;Tagging</title>
<path fill="none" stroke="#16399d" d="M245.1029,-64.5502C242.6816,-58.3241 240.0807,-51.6362 237.6269,-45.3263"/>
<ellipse fill="none" stroke="#16399d" cx="246.6288" cy="-68.4742" rx="4" ry="4"/>
<polygon fill="#16399d" stroke="#16399d" points="237.5633,-45.1626 238.1328,-34.2115 235.751,-40.5026 233.9388,-35.8425 233.9388,-35.8425 233.9388,-35.8425 235.751,-40.5026 229.7447,-37.4736 237.5633,-45.1626 237.5633,-45.1626"/>
</g>
<!-- ApplicationRecord -->
<g id="node7" class="node">
<title>ApplicationRecord</title>
<ellipse fill="none" stroke="#000000" cx="541" cy="-255" rx="96.6831" ry="18"/>
<text text-anchor="middle" x="541" y="-251.3" font-family="Times,serif" font-size="14.00" fill="#000000">ApplicationRecord</text>
</g>
</g>
</svg>
